<mxfile host="app.diagrams.net" modified="2024-02-19T15:41:10.447Z" agent="Mozilla/5.0 (Windows NT 10.0; Win64; x64) AppleWebKit/537.36 (KHTML, like Gecko) Chrome/121.0.0.0 Safari/537.36" etag="mBwbTcHg8CuXl2gV5GAu" version="23.1.5" type="github">
  <diagram name="Página-1" id="hKJjzm0soJHq8AZ1KZP3">
    <mxGraphModel dx="954" dy="558" grid="1" gridSize="10" guides="1" tooltips="1" connect="1" arrows="1" fold="1" page="1" pageScale="1" pageWidth="827" pageHeight="1169" math="0" shadow="0">
      <root>
        <mxCell id="0" />
        <mxCell id="1" parent="0" />
        <mxCell id="v2WpYiYs6rFsV6NI1iXC-2" value="NumMec" style="ellipse;whiteSpace=wrap;html=1;" vertex="1" parent="1">
          <mxGeometry x="140" y="150" width="120" height="80" as="geometry" />
        </mxCell>
        <mxCell id="v2WpYiYs6rFsV6NI1iXC-3" value="ALUNO" style="rounded=0;whiteSpace=wrap;html=1;" vertex="1" parent="1">
          <mxGeometry x="320" y="270" width="120" height="60" as="geometry" />
        </mxCell>
        <mxCell id="v2WpYiYs6rFsV6NI1iXC-4" value="" style="endArrow=none;html=1;rounded=0;exitX=0;exitY=0;exitDx=0;exitDy=0;" edge="1" parent="1" source="v2WpYiYs6rFsV6NI1iXC-3" target="v2WpYiYs6rFsV6NI1iXC-2">
          <mxGeometry width="50" height="50" relative="1" as="geometry">
            <mxPoint x="390" y="320" as="sourcePoint" />
            <mxPoint x="440" y="270" as="targetPoint" />
          </mxGeometry>
        </mxCell>
        <mxCell id="v2WpYiYs6rFsV6NI1iXC-5" value="Nome" style="ellipse;whiteSpace=wrap;html=1;" vertex="1" parent="1">
          <mxGeometry x="120" y="240" width="100" height="70" as="geometry" />
        </mxCell>
        <mxCell id="v2WpYiYs6rFsV6NI1iXC-6" value="Sexo" style="ellipse;whiteSpace=wrap;html=1;" vertex="1" parent="1">
          <mxGeometry x="150" y="330" width="100" height="70" as="geometry" />
        </mxCell>
        <mxCell id="v2WpYiYs6rFsV6NI1iXC-7" value="" style="endArrow=none;html=1;rounded=0;" edge="1" parent="1" source="v2WpYiYs6rFsV6NI1iXC-5" target="v2WpYiYs6rFsV6NI1iXC-3">
          <mxGeometry width="50" height="50" relative="1" as="geometry">
            <mxPoint x="390" y="320" as="sourcePoint" />
            <mxPoint x="440" y="270" as="targetPoint" />
          </mxGeometry>
        </mxCell>
        <mxCell id="v2WpYiYs6rFsV6NI1iXC-8" value="" style="endArrow=none;html=1;rounded=0;entryX=0;entryY=1;entryDx=0;entryDy=0;" edge="1" parent="1" source="v2WpYiYs6rFsV6NI1iXC-6" target="v2WpYiYs6rFsV6NI1iXC-3">
          <mxGeometry width="50" height="50" relative="1" as="geometry">
            <mxPoint x="390" y="320" as="sourcePoint" />
            <mxPoint x="440" y="270" as="targetPoint" />
          </mxGeometry>
        </mxCell>
        <mxCell id="v2WpYiYs6rFsV6NI1iXC-9" value="DataNasc" style="ellipse;whiteSpace=wrap;html=1;" vertex="1" parent="1">
          <mxGeometry x="310" y="370" width="120" height="80" as="geometry" />
        </mxCell>
        <mxCell id="v2WpYiYs6rFsV6NI1iXC-10" value="" style="endArrow=none;html=1;rounded=0;exitX=0.4;exitY=1.067;exitDx=0;exitDy=0;exitPerimeter=0;" edge="1" parent="1" source="v2WpYiYs6rFsV6NI1iXC-3" target="v2WpYiYs6rFsV6NI1iXC-9">
          <mxGeometry width="50" height="50" relative="1" as="geometry">
            <mxPoint x="390" y="320" as="sourcePoint" />
            <mxPoint x="440" y="270" as="targetPoint" />
          </mxGeometry>
        </mxCell>
        <mxCell id="v2WpYiYs6rFsV6NI1iXC-11" value="" style="ellipse;whiteSpace=wrap;html=1;" vertex="1" parent="1">
          <mxGeometry x="350" y="110" width="100" height="70" as="geometry" />
        </mxCell>
        <mxCell id="v2WpYiYs6rFsV6NI1iXC-12" value="NumTelef" style="ellipse;whiteSpace=wrap;html=1;" vertex="1" parent="1">
          <mxGeometry x="360" y="120" width="80" height="50" as="geometry" />
        </mxCell>
        <mxCell id="v2WpYiYs6rFsV6NI1iXC-13" value="" style="endArrow=none;html=1;rounded=0;entryX=0.342;entryY=0;entryDx=0;entryDy=0;entryPerimeter=0;" edge="1" parent="1" source="v2WpYiYs6rFsV6NI1iXC-11" target="v2WpYiYs6rFsV6NI1iXC-3">
          <mxGeometry width="50" height="50" relative="1" as="geometry">
            <mxPoint x="390" y="320" as="sourcePoint" />
            <mxPoint x="440" y="270" as="targetPoint" />
          </mxGeometry>
        </mxCell>
        <mxCell id="v2WpYiYs6rFsV6NI1iXC-14" value="" style="ellipse;whiteSpace=wrap;html=1;" vertex="1" parent="1">
          <mxGeometry x="480" y="170" width="100" height="70" as="geometry" />
        </mxCell>
        <mxCell id="v2WpYiYs6rFsV6NI1iXC-15" value="habilitação" style="ellipse;whiteSpace=wrap;html=1;" vertex="1" parent="1">
          <mxGeometry x="490" y="180" width="80" height="50" as="geometry" />
        </mxCell>
        <mxCell id="v2WpYiYs6rFsV6NI1iXC-16" value="" style="endArrow=none;html=1;rounded=0;exitX=0;exitY=1;exitDx=0;exitDy=0;" edge="1" parent="1" source="v2WpYiYs6rFsV6NI1iXC-14">
          <mxGeometry width="50" height="50" relative="1" as="geometry">
            <mxPoint x="390" y="320" as="sourcePoint" />
            <mxPoint x="440" y="270" as="targetPoint" />
          </mxGeometry>
        </mxCell>
        <mxCell id="v2WpYiYs6rFsV6NI1iXC-17" value="Grau" style="ellipse;whiteSpace=wrap;html=1;" vertex="1" parent="1">
          <mxGeometry x="490" y="110" width="80" height="50" as="geometry" />
        </mxCell>
      </root>
    </mxGraphModel>
  </diagram>
</mxfile>
